<?xml version="1.0" standalone="no"?>
<!DOCTYPE svg PUBLIC "-//W3C//DTD SVG 20010904//EN"
 "http://www.w3.org/TR/2001/REC-SVG-20010904/DTD/svg10.dtd">
<svg version="1.0" xmlns="http://www.w3.org/2000/svg"
 width="332.000000pt" height="372.000000pt" viewBox="0 0 332.000000 372.000000"
 preserveAspectRatio="xMidYMid meet">

<g transform="translate(0.000000,372.000000) scale(0.100000,-0.100000)"
fill="#000000" stroke="none">
<path d="M1050 3637 c-120 -27 -204 -107 -236 -224 -29 -107 -4 -209 70 -283
l34 -35 -33 -45 c-90 -124 -169 -293 -270 -575 -73 -202 -84 -225 -189 -368
-162 -220 -245 -363 -300 -517 -106 -293 -91 -617 39 -839 69 -117 205 -240
342 -309 119 -61 275 -102 475 -127 245 -30 531 -105 781 -207 l152 -62 105 0
105 0 160 75 c184 87 343 153 500 207 l110 37 11 44 c9 40 15 46 62 67 240
106 325 458 164 673 l-26 34 47 208 c26 115 44 215 41 224 -10 25 -52 29 -141
11 -241 -47 -509 -172 -695 -323 l-77 -63 -67 0 c-57 0 -71 4 -103 28 -73 57
-218 138 -343 191 -169 72 -388 129 -616 162 -78 11 -83 13 -77 33 3 11 8 36
12 54 7 37 14 38 140 22 375 -50 649 -159 967 -384 9 -6 34 8 82 46 132 106
289 202 414 253 36 15 69 30 73 34 4 4 -28 77 -71 162 -43 85 -98 207 -122
272 -40 110 -43 121 -30 150 59 141 73 202 78 332 6 177 -20 327 -79 449 l-18
38 42 42 c63 61 90 125 90 211 -1 94 -30 161 -94 219 -92 83 -209 99 -318 45
-55 -28 -120 -91 -133 -131 -3 -7 -12 -6 -29 5 -43 28 -201 68 -294 73 -98 7
-254 -14 -338 -43 -45 -16 -49 -16 -58 -1 -39 70 -144 133 -234 142 -27 3 -75
0 -105 -7z m1324 -957 c31 -30 27 -87 -8 -116 -37 -32 -71 -30 -107 5 -38 39
-38 74 1 113 26 25 36 29 63 24 18 -4 41 -15 51 -26z m-589 -15 c52 -51 15
-135 -58 -135 -46 0 -76 26 -83 72 -5 30 -2 41 19 62 35 35 89 35 122 1z m371
-180 c137 -68 253 -276 242 -433 -8 -112 -56 -179 -163 -228 -130 -60 -321
-32 -425 62 -69 62 -85 103 -85 215 0 90 2 99 37 170 68 137 197 237 309 239
19 0 57 -11 85 -25z m-952 -991 c326 -59 549 -137 753 -266 46 -29 63 -46 63
-61 0 -12 -25 -164 -55 -337 -30 -173 -67 -385 -82 -470 -15 -85 -28 -157 -29
-159 -2 -1 -49 15 -106 37 -118 46 -318 108 -461 143 l-98 23 34 17 c46 24
114 101 138 157 30 69 36 166 14 233 -37 111 -177 214 -377 277 -139 44 -220
84 -274 133 -48 45 -83 106 -84 146 0 18 8 13 54 -31 55 -54 206 -138 272
-151 l31 -6 6 63 c4 35 10 111 13 171 6 97 9 107 26 107 11 0 84 -11 162 -26z
m1816 -184 c-22 -106 -40 -194 -40 -195 0 -1 -20 -10 -45 -20 -65 -24 -135
-84 -172 -146 -91 -152 -78 -358 28 -453 l38 -35 -52 -17 c-104 -34 -305 -113
-430 -168 -71 -32 -130 -56 -132 -54 -3 3 103 595 149 832 18 90 31 132 43
142 65 50 198 136 253 164 104 52 384 154 398 145 1 -1 -16 -89 -38 -195z
m-762 -195 c2 -2 -14 -99 -36 -217 -22 -117 -62 -331 -88 -475 l-49 -263 -63
0 c-60 0 -62 1 -57 23 3 12 16 90 30 172 47 275 116 669 126 722 l10 51 62 -5
c34 -3 63 -7 65 -8z"/>
<path d="M2125 2183 c-81 -22 -112 -63 -94 -125 11 -43 65 -96 115 -113 33
-11 44 -11 74 1 100 42 150 149 98 209 -20 23 -32 27 -98 30 -41 2 -84 1 -95
-2z"/>
<path d="M1088 1493 c7 -3 16 -2 19 1 4 3 -2 6 -13 5 -11 0 -14 -3 -6 -6z"/>
<path d="M1138 1483 c7 -3 16 -2 19 1 4 3 -2 6 -13 5 -11 0 -14 -3 -6 -6z"/>
<path d="M1032 1415 c0 -16 2 -22 5 -12 2 9 2 23 0 30 -3 6 -5 -1 -5 -18z"/>
<path d="M1021 1274 c0 -11 3 -14 6 -6 3 7 2 16 -1 19 -3 4 -6 -2 -5 -13z"/>
<path d="M1010 1180 c0 -5 6 -10 12 -10 7 0 55 -21 106 -46 144 -72 231 -168
248 -273 4 -23 11 -44 15 -47 27 -16 -10 102 -51 166 -18 28 -59 69 -93 94
-34 25 -70 52 -79 61 -10 8 -18 13 -18 10 0 -2 -30 9 -66 25 -74 34 -74 34
-74 20z"/>
<path d="M1402 760 c0 -14 2 -19 5 -12 2 6 2 18 0 25 -3 6 -5 1 -5 -13z"/>
<path d="M1403 695 c0 -22 2 -30 4 -17 2 12 2 30 0 40 -3 9 -5 -1 -4 -23z"/>
<path d="M1901 594 c0 -11 3 -14 6 -6 3 7 2 16 -1 19 -3 4 -6 -2 -5 -13z"/>
<path d="M1448 353 c7 -3 16 -2 19 1 4 3 -2 6 -13 5 -11 0 -14 -3 -6 -6z"/>
<path d="M3001 1324 c0 -11 3 -14 6 -6 3 7 2 16 -1 19 -3 4 -6 -2 -5 -13z"/>
<path d="M2981 1234 c0 -11 3 -14 6 -6 3 7 2 16 -1 19 -3 4 -6 -2 -5 -13z"/>
<path d="M2131 1044 c0 -11 3 -14 6 -6 3 7 2 16 -1 19 -3 4 -6 -2 -5 -13z"/>
<path d="M2121 994 c0 -11 3 -14 6 -6 3 7 2 16 -1 19 -3 4 -6 -2 -5 -13z"/>
<path d="M2191 854 c0 -11 3 -14 6 -6 3 7 2 16 -1 19 -3 4 -6 -2 -5 -13z"/>
</g>
</svg>
